<svg width="1024" height="1024" viewBox="0 0 1024 1024" xmlns="http://www.w3.org/2000/svg">
  <defs>
    <linearGradient id="bg" x1="0" y1="0" x2="1" y2="1">
      <stop offset="0" stop-color="#23233a"/>
      <stop offset="1" stop-color="#0a0a12"/>
    </linearGradient>
    <radialGradient id="glow" cx="0.32" cy="0.25" r="0.9">
      <stop offset="0" stop-color="#8b7bff" stop-opacity="0.55"/>
      <stop offset="0.5" stop-color="#8b7bff" stop-opacity="0.12"/>
      <stop offset="1" stop-color="#8b7bff" stop-opacity="0"/>
    </radialGradient>
    <linearGradient id="note" x1="0" y1="0" x2="0" y2="1">
      <stop offset="0" stop-color="#ffffff"/>
      <stop offset="1" stop-color="#d9d4ff"/>
    </linearGradient>
  </defs>
  <rect x="64" y="64" width="896" height="896" rx="200" fill="url(#bg)"/>
  <rect x="64" y="64" width="896" height="896" rx="200" fill="url(#glow)"/>
  <rect x="64" y="64" width="896" height="896" rx="200" fill="none" stroke="#ffffff" stroke-opacity="0.08" stroke-width="6"/>
  <!-- seek arc -->
  <path d="M 300 764 A 300 300 0 1 1 764 512" fill="none" stroke="#8b7bff" stroke-width="34" stroke-linecap="round" opacity="0.9"/>
  <circle cx="764" cy="512" r="30" fill="#8b7bff"/>
  <!-- double note -->
  <g fill="url(#note)">
    <path d="M 436 690 L 436 388 c 0 -14 10 -26 24 -29 l 212 -47 c 18 -4 36 9 36 28 l 0 296 l -52 0 l 0 -238 l -168 38 l 0 264 z"/>
    <ellipse cx="384" cy="692" rx="76" ry="58" transform="rotate(-12 384 692)"/>
    <ellipse cx="656" cy="638" rx="76" ry="58" transform="rotate(-12 656 638)"/>
  </g>
</svg>
